<svg xmlns="http://www.w3.org/2000/svg" xmlns:xlink="http://www.w3.org/1999/xlink" width="250" zoomAndPan="magnify" viewBox="0 0 187.5 30.000001" height="40" preserveAspectRatio="xMidYMid meet" version="1.0"><defs><g/></defs><path stroke-linecap="round" transform="matrix(1.058468, 0, 0, 1.058468, 2.782255, 1.932789)" fill="none" stroke-linejoin="round" d="M 12.00048 5.001356 C 12.00048 4.595403 11.92298 4.207903 11.76798 3.835165 C 11.61298 3.462427 11.391551 3.133975 11.103694 2.849808 C 10.815837 2.569332 10.483694 2.351594 10.107265 2.203974 C 9.730837 2.052665 9.339646 1.982546 8.937384 1.993617 C 8.535122 2.000998 8.147622 2.085879 7.778575 2.251951 C 7.409527 2.414332 7.084765 2.646832 6.81167 2.94207 C 6.534884 3.233617 6.324527 3.573141 6.184289 3.94957 C 6.047741 4.329689 5.985003 4.720879 6.003456 5.126832 C 5.708217 5.200641 5.427741 5.307665 5.158336 5.447903 C 4.888932 5.588141 4.637979 5.754213 4.405479 5.953498 C 4.17667 6.149094 3.970003 6.370522 3.78917 6.614094 C 3.608336 6.857665 3.457027 7.115999 3.335241 7.396475 C 3.213455 7.67326 3.124884 7.961118 3.069527 8.260046 C 3.010479 8.558975 2.988336 8.857903 3.003098 9.160522 C 3.01417 9.463141 3.062146 9.76207 3.139646 10.053618 C 3.220836 10.348856 3.331551 10.629332 3.475479 10.895046 C 3.224527 11.101713 2.999408 11.334213 2.803813 11.592546 C 2.608217 11.85457 2.445836 12.135046 2.31667 12.433975 C 2.191193 12.732904 2.102622 13.042904 2.050955 13.367665 C 1.999289 13.688737 1.984527 14.009808 2.014051 14.33457 C 2.039884 14.659332 2.106312 14.976713 2.213336 15.286713 C 2.31667 15.593023 2.456908 15.88457 2.634051 16.161356 C 2.807503 16.434451 3.01417 16.681713 3.25036 16.906832 C 3.490241 17.131951 3.748574 17.323856 4.032741 17.482547 C 3.999527 17.755642 3.992146 18.025047 4.010598 18.298142 C 4.032741 18.571237 4.080717 18.840642 4.154527 19.102666 C 4.232027 19.36469 4.33167 19.615642 4.460836 19.859213 C 4.586313 20.099094 4.737622 20.327904 4.911075 20.538261 C 5.084527 20.748618 5.280122 20.940523 5.490479 21.110285 C 5.704527 21.283737 5.933336 21.431356 6.176908 21.556833 C 6.420479 21.678618 6.671432 21.778261 6.937146 21.852071 C 7.19917 21.92588 7.468575 21.970166 7.74167 21.988618 C 8.014765 22.00338 8.28417 21.995999 8.557265 21.955404 C 8.82667 21.918499 9.092384 21.852071 9.347027 21.759809 C 9.60536 21.671237 9.852622 21.553142 10.085122 21.409213 C 10.317622 21.268975 10.53536 21.102904 10.734646 20.91469 C 10.933932 20.730166 11.111075 20.523499 11.269765 20.302071 C 11.428456 20.076951 11.561313 19.840761 11.668337 19.589809 C 11.779051 19.338856 11.860241 19.080523 11.915599 18.811118 C 11.970956 18.545404 12.00048 18.272309 12.00048 17.999213 Z M 12.00048 5.001356 " stroke="#60a5fa" stroke-width="2" stroke-opacity="1" stroke-miterlimit="4"/><path stroke-linecap="round" transform="matrix(1.058468, 0, 0, 1.058468, 2.782255, 1.932789)" fill="none" stroke-linejoin="round" d="M 12.00048 5.001356 C 12.00048 4.595403 12.074289 4.207903 12.23298 3.835165 C 12.38798 3.462427 12.609408 3.133975 12.897265 2.849808 C 13.185123 2.569332 13.517265 2.351594 13.893694 2.203974 C 14.270123 2.052665 14.657623 1.982546 15.063575 1.993617 C 15.465837 2.000998 15.853337 2.085879 16.222385 2.251951 C 16.591432 2.414332 16.912504 2.646832 17.189289 2.94207 C 17.466075 3.233617 17.672742 3.573141 17.81298 3.94957 C 17.953218 4.329689 18.015956 4.720879 17.997504 5.126832 C 18.292742 5.200641 18.573218 5.307665 18.842623 5.447903 C 19.112028 5.588141 19.36298 5.754213 19.591789 5.953498 C 19.824289 6.149094 20.030956 6.370522 20.211789 6.614094 C 20.392623 6.857665 20.543932 7.115999 20.665718 7.396475 C 20.787504 7.67326 20.876075 7.961118 20.931432 8.260046 C 20.98679 8.558975 21.008932 8.857903 20.997861 9.160522 C 20.98679 9.463141 20.938813 9.76207 20.857623 10.053618 C 20.780123 10.348856 20.665718 10.629332 20.52179 10.895046 C 20.776432 11.101713 21.001551 11.334213 21.197147 11.592546 C 21.392742 11.85457 21.555123 12.135046 21.680599 12.433975 C 21.809766 12.732904 21.898337 13.042904 21.950004 13.367665 C 22.001671 13.688737 22.012742 14.009808 21.986909 14.33457 C 21.961075 14.659332 21.894647 14.976713 21.787623 15.286713 C 21.68429 15.593023 21.544051 15.88457 21.366909 16.161356 C 21.189766 16.434451 20.983099 16.681713 20.746909 16.906832 C 20.510718 17.131951 20.252385 17.323856 19.968218 17.482547 C 20.001432 17.755642 20.008813 18.025047 19.990361 18.298142 C 19.968218 18.571237 19.920242 18.840642 19.842742 19.102666 C 19.768932 19.36469 19.665599 19.615642 19.540123 19.859213 C 19.410956 20.099094 19.263337 20.327904 19.089885 20.538261 C 18.912742 20.748618 18.720837 20.940523 18.506789 21.110285 C 18.296432 21.283737 18.067623 21.431356 17.824051 21.556833 C 17.58048 21.678618 17.325837 21.778261 17.063813 21.852071 C 16.801789 21.92588 16.532385 21.970166 16.259289 21.988618 C 15.986194 22.00338 15.713099 21.995999 15.443694 21.955404 C 15.174289 21.918499 14.908575 21.852071 14.650242 21.759809 C 14.395599 21.671237 14.148337 21.553142 13.915837 21.409213 C 13.683337 21.268975 13.465599 21.102904 13.266313 20.91469 C 13.067027 20.730166 12.889884 20.523499 12.731194 20.302071 C 12.572503 20.076951 12.439646 19.840761 12.332622 19.589809 C 12.221908 19.338856 12.140718 19.080523 12.085361 18.811118 C 12.030003 18.545404 12.00048 18.272309 12.00048 17.999213 Z M 12.00048 5.001356 " stroke="#60a5fa" stroke-width="2" stroke-opacity="1" stroke-miterlimit="4"/><path stroke-linecap="round" transform="matrix(1.058468, 0, 0, 1.058468, 2.782255, 1.932789)" fill="none" stroke-linejoin="round" d="M 15.000837 12.998618 C 14.580123 12.850999 14.192623 12.648023 13.830956 12.382308 C 13.47298 12.120284 13.159289 11.810284 12.893575 11.455999 C 12.627861 11.098023 12.417503 10.710522 12.266194 10.293499 C 12.111194 9.876475 12.022622 9.444689 12.00048 9.001832 C 11.974646 9.444689 11.886075 9.876475 11.734765 10.293499 C 11.583456 10.710522 11.373099 11.098023 11.107384 11.455999 C 10.83798 11.810284 10.52798 12.120284 10.166313 12.382308 C 9.808337 12.648023 9.420837 12.850999 9.000122 12.998618 " stroke="#60a5fa" stroke-width="2" stroke-opacity="1" stroke-miterlimit="4"/><path stroke-linecap="round" transform="matrix(1.058468, 0, 0, 1.058468, 2.782255, 1.932789)" fill="none" stroke-linejoin="round" d="M 17.598932 6.499689 C 17.846194 6.075284 17.979051 5.617665 17.997504 5.126832 " stroke="#60a5fa" stroke-width="2" stroke-opacity="1" stroke-miterlimit="4"/><path stroke-linecap="round" transform="matrix(1.058468, 0, 0, 1.058468, 2.782255, 1.932789)" fill="none" stroke-linejoin="round" d="M 6.003456 5.126832 C 6.021908 5.617665 6.154765 6.075284 6.402027 6.499689 " stroke="#60a5fa" stroke-width="2" stroke-opacity="1" stroke-miterlimit="4"/><path stroke-linecap="round" transform="matrix(1.058468, 0, 0, 1.058468, 2.782255, 1.932789)" fill="none" stroke-linejoin="round" d="M 3.475479 10.895046 C 3.660003 10.747427 3.855598 10.61457 4.062265 10.500165 " stroke="#60a5fa" stroke-width="2" stroke-opacity="1" stroke-miterlimit="4"/><path stroke-linecap="round" transform="matrix(1.058468, 0, 0, 1.058468, 2.782255, 1.932789)" fill="none" stroke-linejoin="round" d="M 19.938694 10.500165 C 20.145361 10.61457 20.340956 10.747427 20.52179 10.895046 " stroke="#60a5fa" stroke-width="2" stroke-opacity="1" stroke-miterlimit="4"/><path stroke-linecap="round" transform="matrix(1.058468, 0, 0, 1.058468, 2.782255, 1.932789)" fill="none" stroke-linejoin="round" d="M 5.999765 17.999213 C 5.298575 17.999213 4.64167 17.829451 4.032741 17.482547 " stroke="#60a5fa" stroke-width="2" stroke-opacity="1" stroke-miterlimit="4"/><path stroke-linecap="round" transform="matrix(1.058468, 0, 0, 1.058468, 2.782255, 1.932789)" fill="none" stroke-linejoin="round" d="M 19.968218 17.482547 C 19.355599 17.829451 18.702385 17.999213 18.001194 17.999213 " stroke="#60a5fa" stroke-width="2" stroke-opacity="1" stroke-miterlimit="4"/><g fill="#ffffff" fill-opacity="1"><g transform="translate(30.040169, 21.388151)"><g><path d="M 5.03125 -11.71875 L 5.03125 -7.921875 L 11.703125 -7.921875 L 11.703125 -5.25 L 5.03125 -5.25 L 5.03125 0 L 1.703125 0 L 1.703125 -14.390625 L 12.578125 -14.390625 L 12.578125 -11.71875 Z M 5.03125 -11.71875 "/></g></g></g><g fill="#ffffff" fill-opacity="1"><g transform="translate(43.178356, 21.388151)"><g><path d="M 12.625 -11.0625 L 12.625 0 L 9.578125 0 L 9.578125 -1.3125 C 9.148438 -0.832031 8.640625 -0.460938 8.046875 -0.203125 C 7.460938 0.046875 6.828125 0.171875 6.140625 0.171875 C 4.691406 0.171875 3.539062 -0.242188 2.6875 -1.078125 C 1.84375 -1.921875 1.421875 -3.164062 1.421875 -4.8125 L 1.421875 -11.0625 L 4.625 -11.0625 L 4.625 -5.28125 C 4.625 -3.5 5.375 -2.609375 6.875 -2.609375 C 7.632812 -2.609375 8.25 -2.859375 8.71875 -3.359375 C 9.1875 -3.859375 9.421875 -4.601562 9.421875 -5.59375 L 9.421875 -11.0625 Z M 12.625 -11.0625 "/></g></g></g><g fill="#ffffff" fill-opacity="1"><g transform="translate(57.303449, 21.388151)"><g><path d="M 8.609375 -0.53125 C 8.296875 -0.300781 7.910156 -0.125 7.453125 0 C 6.992188 0.113281 6.507812 0.171875 6 0.171875 C 4.6875 0.171875 3.671875 -0.160156 2.953125 -0.828125 C 2.234375 -1.503906 1.875 -2.492188 1.875 -3.796875 L 1.875 -8.34375 L 0.171875 -8.34375 L 0.171875 -10.8125 L 1.875 -10.8125 L 1.875 -13.515625 L 5.078125 -13.515625 L 5.078125 -10.8125 L 7.828125 -10.8125 L 7.828125 -8.34375 L 5.078125 -8.34375 L 5.078125 -3.84375 C 5.078125 -3.375 5.195312 -3.015625 5.4375 -2.765625 C 5.675781 -2.515625 6.015625 -2.390625 6.453125 -2.390625 C 6.960938 -2.390625 7.394531 -2.523438 7.75 -2.796875 Z M 8.609375 -0.53125 "/></g></g></g><g fill="#ffffff" fill-opacity="1"><g transform="translate(66.247283, 21.388151)"><g><path d="M 12.625 -11.0625 L 12.625 0 L 9.578125 0 L 9.578125 -1.3125 C 9.148438 -0.832031 8.640625 -0.460938 8.046875 -0.203125 C 7.460938 0.046875 6.828125 0.171875 6.140625 0.171875 C 4.691406 0.171875 3.539062 -0.242188 2.6875 -1.078125 C 1.84375 -1.921875 1.421875 -3.164062 1.421875 -4.8125 L 1.421875 -11.0625 L 4.625 -11.0625 L 4.625 -5.28125 C 4.625 -3.5 5.375 -2.609375 6.875 -2.609375 C 7.632812 -2.609375 8.25 -2.859375 8.71875 -3.359375 C 9.1875 -3.859375 9.421875 -4.601562 9.421875 -5.59375 L 9.421875 -11.0625 Z M 12.625 -11.0625 "/></g></g></g><g fill="#ffffff" fill-opacity="1"><g transform="translate(80.372376, 21.388151)"><g><path d="M 4.546875 -9.609375 C 4.929688 -10.140625 5.445312 -10.539062 6.09375 -10.8125 C 6.75 -11.09375 7.5 -11.234375 8.34375 -11.234375 L 8.34375 -8.265625 C 7.988281 -8.296875 7.75 -8.3125 7.625 -8.3125 C 6.707031 -8.3125 5.988281 -8.050781 5.46875 -7.53125 C 4.945312 -7.019531 4.6875 -6.25 4.6875 -5.21875 L 4.6875 0 L 1.484375 0 L 1.484375 -11.0625 L 4.546875 -11.0625 Z M 4.546875 -9.609375 "/></g></g></g><g fill="#ffffff" fill-opacity="1"><g transform="translate(89.233969, 21.388151)"><g><path d="M 12.3125 -5.484375 C 12.3125 -5.441406 12.289062 -5.15625 12.25 -4.625 L 3.890625 -4.625 C 4.035156 -3.9375 4.390625 -3.394531 4.953125 -3 C 5.515625 -2.601562 6.210938 -2.40625 7.046875 -2.40625 C 7.628906 -2.40625 8.140625 -2.488281 8.578125 -2.65625 C 9.023438 -2.832031 9.441406 -3.101562 9.828125 -3.46875 L 11.53125 -1.625 C 10.488281 -0.425781 8.96875 0.171875 6.96875 0.171875 C 5.71875 0.171875 4.613281 -0.0703125 3.65625 -0.5625 C 2.695312 -1.050781 1.957031 -1.726562 1.4375 -2.59375 C 0.914062 -3.457031 0.65625 -4.4375 0.65625 -5.53125 C 0.65625 -6.613281 0.910156 -7.585938 1.421875 -8.453125 C 1.941406 -9.328125 2.648438 -10.007812 3.546875 -10.5 C 4.441406 -10.988281 5.445312 -11.234375 6.5625 -11.234375 C 7.644531 -11.234375 8.625 -11 9.5 -10.53125 C 10.375 -10.0625 11.0625 -9.390625 11.5625 -8.515625 C 12.0625 -7.648438 12.3125 -6.640625 12.3125 -5.484375 Z M 6.578125 -8.796875 C 5.847656 -8.796875 5.238281 -8.585938 4.75 -8.171875 C 4.257812 -7.765625 3.957031 -7.207031 3.84375 -6.5 L 9.296875 -6.5 C 9.179688 -7.195312 8.878906 -7.753906 8.390625 -8.171875 C 7.898438 -8.585938 7.296875 -8.796875 6.578125 -8.796875 Z M 6.578125 -8.796875 "/></g></g></g><g fill="#ffffff" fill-opacity="1"><g transform="translate(102.207674, 21.388151)"><g><path d="M 11.1875 -3.078125 L 4.5 -3.078125 L 3.234375 0 L -0.1875 0 L 6.234375 -14.390625 L 9.515625 -14.390625 L 15.953125 0 L 12.453125 0 Z M 10.140625 -5.609375 L 7.859375 -11.125 L 5.578125 -5.609375 Z M 10.140625 -5.609375 "/></g></g></g><g fill="#ffffff" fill-opacity="1"><g transform="translate(117.957049, 21.388151)"><g><path d="M 5.203125 0.171875 C 4.285156 0.171875 3.382812 0.0546875 2.5 -0.171875 C 1.625 -0.398438 0.925781 -0.6875 0.40625 -1.03125 L 1.484375 -3.328125 C 1.972656 -3.015625 2.566406 -2.757812 3.265625 -2.5625 C 3.960938 -2.363281 4.648438 -2.265625 5.328125 -2.265625 C 6.679688 -2.265625 7.359375 -2.597656 7.359375 -3.265625 C 7.359375 -3.585938 7.171875 -3.816406 6.796875 -3.953125 C 6.429688 -4.085938 5.863281 -4.203125 5.09375 -4.296875 C 4.195312 -4.429688 3.453125 -4.585938 2.859375 -4.765625 C 2.265625 -4.941406 1.75 -5.253906 1.3125 -5.703125 C 0.882812 -6.160156 0.671875 -6.8125 0.671875 -7.65625 C 0.671875 -8.351562 0.875 -8.972656 1.28125 -9.515625 C 1.6875 -10.054688 2.273438 -10.476562 3.046875 -10.78125 C 3.828125 -11.082031 4.742188 -11.234375 5.796875 -11.234375 C 6.578125 -11.234375 7.351562 -11.144531 8.125 -10.96875 C 8.90625 -10.800781 9.550781 -10.566406 10.0625 -10.265625 L 8.984375 -7.984375 C 8.015625 -8.523438 6.953125 -8.796875 5.796875 -8.796875 C 5.109375 -8.796875 4.59375 -8.695312 4.25 -8.5 C 3.914062 -8.3125 3.75 -8.066406 3.75 -7.765625 C 3.75 -7.429688 3.929688 -7.191406 4.296875 -7.046875 C 4.671875 -6.910156 5.257812 -6.78125 6.0625 -6.65625 C 6.96875 -6.507812 7.707031 -6.347656 8.28125 -6.171875 C 8.863281 -6.003906 9.363281 -5.691406 9.78125 -5.234375 C 10.207031 -4.785156 10.421875 -4.160156 10.421875 -3.359375 C 10.421875 -2.671875 10.210938 -2.054688 9.796875 -1.515625 C 9.390625 -0.984375 8.789062 -0.566406 8 -0.265625 C 7.21875 0.0234375 6.285156 0.171875 5.203125 0.171875 Z M 5.203125 0.171875 "/></g></g></g><g fill="#ffffff" fill-opacity="1"><g transform="translate(128.874695, 21.388151)"><g><path d="M 6.828125 0.171875 C 5.648438 0.171875 4.585938 -0.0703125 3.640625 -0.5625 C 2.703125 -1.050781 1.96875 -1.726562 1.4375 -2.59375 C 0.914062 -3.457031 0.65625 -4.4375 0.65625 -5.53125 C 0.65625 -6.625 0.914062 -7.601562 1.4375 -8.46875 C 1.96875 -9.332031 2.703125 -10.007812 3.640625 -10.5 C 4.585938 -10.988281 5.648438 -11.234375 6.828125 -11.234375 C 7.992188 -11.234375 9.007812 -10.988281 9.875 -10.5 C 10.75 -10.007812 11.382812 -9.3125 11.78125 -8.40625 L 9.296875 -7.078125 C 8.722656 -8.085938 7.894531 -8.59375 6.8125 -8.59375 C 5.96875 -8.59375 5.269531 -8.316406 4.71875 -7.765625 C 4.175781 -7.222656 3.90625 -6.476562 3.90625 -5.53125 C 3.90625 -4.582031 4.175781 -3.832031 4.71875 -3.28125 C 5.269531 -2.738281 5.96875 -2.46875 6.8125 -2.46875 C 7.90625 -2.46875 8.734375 -2.972656 9.296875 -3.984375 L 11.78125 -2.625 C 11.382812 -1.75 10.75 -1.0625 9.875 -0.5625 C 9.007812 -0.0703125 7.992188 0.171875 6.828125 0.171875 Z M 6.828125 0.171875 "/></g></g></g><g fill="#ffffff" fill-opacity="1"><g transform="translate(141.025975, 21.388151)"><g><path d="M 12.3125 -5.484375 C 12.3125 -5.441406 12.289062 -5.15625 12.25 -4.625 L 3.890625 -4.625 C 4.035156 -3.9375 4.390625 -3.394531 4.953125 -3 C 5.515625 -2.601562 6.210938 -2.40625 7.046875 -2.40625 C 7.628906 -2.40625 8.140625 -2.488281 8.578125 -2.65625 C 9.023438 -2.832031 9.441406 -3.101562 9.828125 -3.46875 L 11.53125 -1.625 C 10.488281 -0.425781 8.96875 0.171875 6.96875 0.171875 C 5.71875 0.171875 4.613281 -0.0703125 3.65625 -0.5625 C 2.695312 -1.050781 1.957031 -1.726562 1.4375 -2.59375 C 0.914062 -3.457031 0.65625 -4.4375 0.65625 -5.53125 C 0.65625 -6.613281 0.910156 -7.585938 1.421875 -8.453125 C 1.941406 -9.328125 2.648438 -10.007812 3.546875 -10.5 C 4.441406 -10.988281 5.445312 -11.234375 6.5625 -11.234375 C 7.644531 -11.234375 8.625 -11 9.5 -10.53125 C 10.375 -10.0625 11.0625 -9.390625 11.5625 -8.515625 C 12.0625 -7.648438 12.3125 -6.640625 12.3125 -5.484375 Z M 6.578125 -8.796875 C 5.847656 -8.796875 5.238281 -8.585938 4.75 -8.171875 C 4.257812 -7.765625 3.957031 -7.207031 3.84375 -6.5 L 9.296875 -6.5 C 9.179688 -7.195312 8.878906 -7.753906 8.390625 -8.171875 C 7.898438 -8.585938 7.296875 -8.796875 6.578125 -8.796875 Z M 6.578125 -8.796875 "/></g></g></g><g fill="#ffffff" fill-opacity="1"><g transform="translate(153.999681, 21.388151)"><g><path d="M 8.203125 -11.234375 C 9.578125 -11.234375 10.6875 -10.820312 11.53125 -10 C 12.375 -9.175781 12.796875 -7.953125 12.796875 -6.328125 L 12.796875 0 L 9.578125 0 L 9.578125 -5.84375 C 9.578125 -6.71875 9.382812 -7.367188 9 -7.796875 C 8.625 -8.234375 8.070312 -8.453125 7.34375 -8.453125 C 6.53125 -8.453125 5.882812 -8.203125 5.40625 -7.703125 C 4.925781 -7.203125 4.6875 -6.457031 4.6875 -5.46875 L 4.6875 0 L 1.484375 0 L 1.484375 -11.0625 L 4.546875 -11.0625 L 4.546875 -9.765625 C 4.972656 -10.234375 5.5 -10.59375 6.125 -10.84375 C 6.757812 -11.101562 7.453125 -11.234375 8.203125 -11.234375 Z M 8.203125 -11.234375 "/></g></g></g><g fill="#ffffff" fill-opacity="1"><g transform="translate(168.207014, 21.388151)"><g><path d="M 12.75 -15.25 L 12.75 0 L 9.6875 0 L 9.6875 -1.28125 C 8.894531 -0.3125 7.742188 0.171875 6.234375 0.171875 C 5.191406 0.171875 4.25 -0.0625 3.40625 -0.53125 C 2.5625 -1 1.898438 -1.664062 1.421875 -2.53125 C 0.941406 -3.394531 0.703125 -4.394531 0.703125 -5.53125 C 0.703125 -6.664062 0.941406 -7.664062 1.421875 -8.53125 C 1.898438 -9.394531 2.5625 -10.0625 3.40625 -10.53125 C 4.25 -11 5.191406 -11.234375 6.234375 -11.234375 C 7.640625 -11.234375 8.742188 -10.785156 9.546875 -9.890625 L 9.546875 -15.25 Z M 6.78125 -2.46875 C 7.59375 -2.46875 8.265625 -2.742188 8.796875 -3.296875 C 9.335938 -3.859375 9.609375 -4.601562 9.609375 -5.53125 C 9.609375 -6.457031 9.335938 -7.195312 8.796875 -7.75 C 8.265625 -8.3125 7.59375 -8.59375 6.78125 -8.59375 C 5.957031 -8.59375 5.28125 -8.3125 4.75 -7.75 C 4.21875 -7.195312 3.953125 -6.457031 3.953125 -5.53125 C 3.953125 -4.601562 4.21875 -3.859375 4.75 -3.296875 C 5.28125 -2.742188 5.957031 -2.46875 6.78125 -2.46875 Z M 6.78125 -2.46875 "/></g></g></g></svg>